<svg width="13" height="10" viewBox="0 0 13 10" fill="none" xmlns="http://www.w3.org/2000/svg">
<path d="M10.2436 4.42194L0.934315 4.42245L0.925376 4.42245L0.916471 4.42325L0.826596 4.4313L0.81761 4.43211L0.808733 4.43372C0.482057 4.49301 0.234326 4.77859 0.234326 5.12245V5.13139L0.235125 5.1403L0.24318 5.23018L0.243986 5.23916L0.245597 5.24804C0.304891 5.57472 0.59047 5.82245 0.934326 5.82245H0.934337L10.2436 5.82194L7.90382 8.16301C7.9038 8.16302 7.90379 8.16303 7.90378 8.16304C7.63045 8.43641 7.63046 8.8796 7.90382 9.15296C8.17718 9.42632 8.6204 9.42632 8.89377 9.15296L12.4293 5.61742C12.7027 5.34406 12.7027 4.90084 12.4293 4.62747L8.89377 1.09194C8.6204 0.818572 8.17718 0.818572 7.90382 1.09194C7.63045 1.3653 7.63045 1.80851 7.90381 2.08188C7.90381 2.08188 7.90381 2.08189 7.90382 2.08189L10.2436 4.42194Z" fill="#5CC892" stroke="#5CC892" stroke-width="0.4"/>
</svg>
