<svg width="29" height="36" viewBox="0 0 29 36" fill="none" xmlns="http://www.w3.org/2000/svg">
<path d="M24.1585 19.3714C24.1178 14.8938 27.8186 12.7425 27.9853 12.6368C25.9032 9.59073 22.666 9.17592 21.511 9.12711C18.7578 8.84651 16.1347 10.7498 14.7357 10.7498C13.3368 10.7498 11.1814 9.16778 8.89584 9.21252C5.89048 9.25725 3.121 10.9572 1.57155 13.6494C-1.54768 19.0582 0.774458 27.082 3.81642 31.4782C5.30486 33.6255 7.07392 36.0452 9.40419 35.9557C11.6491 35.8663 12.4949 34.5039 15.2034 34.5039C17.9119 34.5039 18.6765 35.9557 21.0433 35.911C23.4549 35.8622 24.9841 33.7149 26.4603 31.5595C28.1643 29.0666 28.8678 26.6509 28.9085 26.5248C28.8556 26.5045 24.2073 24.7233 24.1585 19.3714Z" fill="white"/>
<path d="M19.7056 6.21924C20.9419 4.72266 21.7756 2.64047 21.5478 0.566406C19.7666 0.639608 17.6112 1.75391 16.3342 3.25049C15.1914 4.57219 14.1869 6.69099 14.4594 8.72438C16.4399 8.87892 18.4693 7.71175 19.7056 6.21924Z" fill="white"/>
</svg>
