<svg width="28" height="12" viewBox="0 0 28 12" fill="none" xmlns="http://www.w3.org/2000/svg">
<g clip-path="url(#clip0_22_676)">
<path d="M5.25683 1.44611C4.93839 1.82294 4.42888 2.12015 3.91937 2.07769C3.85568 1.56818 4.10513 1.02683 4.39703 0.692464C4.71548 0.305026 5.27275 0.029042 5.72388 0.0078125C5.77695 0.53855 5.56996 1.05867 5.25683 1.44611ZM5.71857 2.17853C4.98084 2.13607 4.34927 2.59781 3.99898 2.59781C3.64339 2.59781 3.10734 2.19976 2.52353 2.21037C1.76457 2.22099 1.05869 2.65089 0.671254 3.33554C-0.124852 4.70484 0.464267 6.73226 1.23384 7.84681C1.61066 8.39877 2.06179 9.00382 2.65621 8.98259C3.2188 8.96136 3.4417 8.61638 4.12105 8.61638C4.8057 8.61638 5.00207 8.98259 5.5965 8.97197C6.21216 8.96136 6.59959 8.42 6.97642 7.86804C7.40631 7.24177 7.58146 6.63142 7.59207 6.59957C7.58146 6.58896 6.40322 6.13783 6.39261 4.77914C6.38199 3.64337 7.3214 3.10201 7.36386 3.07017C6.83312 2.28468 6.00517 2.19976 5.71857 2.17853ZM9.98039 0.63939V8.91359H11.2648V6.08476H13.0427C14.6668 6.08476 15.8079 4.97021 15.8079 3.35677C15.8079 1.74332 14.688 0.63939 13.0852 0.63939H9.98039ZM11.2648 1.7221H12.7455C13.8601 1.7221 14.497 2.31652 14.497 3.36207C14.497 4.40763 13.8601 5.00736 12.7402 5.00736H11.2648V1.7221ZM18.1538 8.97728C18.9605 8.97728 19.7088 8.56861 20.0485 7.92111H20.075V8.91359H21.2639V4.79507C21.2639 3.60091 20.3085 2.83134 18.8384 2.83134C17.4744 2.83134 16.466 3.61152 16.4289 4.68361H17.5859C17.6814 4.1741 18.1538 3.83974 18.8013 3.83974C19.5867 3.83974 20.0273 4.20595 20.0273 4.87998V5.33642L18.4244 5.43195C16.9331 5.52218 16.1263 6.13252 16.1263 7.194C16.1263 8.26609 16.9596 8.97728 18.1538 8.97728ZM18.4987 7.99541C17.8141 7.99541 17.3789 7.66636 17.3789 7.16216C17.3789 6.64203 17.7982 6.33951 18.5996 6.29175L20.0273 6.20152V6.66857C20.0273 7.44345 19.3691 7.99541 18.4987 7.99541ZM22.8508 11.1639C24.1033 11.1639 24.6924 10.6863 25.2073 9.23734L27.4629 2.91095H26.1573L24.6447 7.79904H24.6181L23.1055 2.91095H21.7628L23.9388 8.93482L23.822 9.30103C23.6257 9.92199 23.3072 10.1608 22.7393 10.1608C22.6385 10.1608 22.4421 10.1502 22.3625 10.1396V11.1321C22.4368 11.1533 22.7552 11.1639 22.8508 11.1639Z" fill="white" fill-opacity="0.9"/>
</g>
<defs>
<clipPath id="clip0_22_676">
<rect width="27.1707" height="11.1973" fill="white" transform="translate(0.292236 0.0078125)"/>
</clipPath>
</defs>
</svg>
