<svg width="26" height="23" viewBox="0 0 26 23" fill="none" xmlns="http://www.w3.org/2000/svg">
<g clip-path="url(#clip0_22_670)">
<path d="M21.0786 18.1956C21.0786 18.486 20.8822 18.6952 20.6004 18.6952C20.31 18.6952 20.1221 18.4732 20.1221 18.1956C20.1221 17.9181 20.31 17.696 20.6004 17.696C20.8822 17.696 21.0786 17.9181 21.0786 18.1956ZM7.80712 17.696C7.50394 17.696 7.32887 17.9181 7.32887 18.1956C7.32887 18.4732 7.50394 18.6952 7.80712 18.6952C8.08468 18.6952 8.27256 18.486 8.27256 18.1956C8.26829 17.9181 8.08468 17.696 7.80712 17.696ZM12.8245 17.6832C12.5939 17.6832 12.453 17.8327 12.4188 18.0547H13.2344C13.196 17.8113 13.0465 17.6832 12.8245 17.6832ZM17.4277 17.696C17.1373 17.696 16.9622 17.9181 16.9622 18.1956C16.9622 18.4732 17.1373 18.6952 17.4277 18.6952C17.7181 18.6952 17.9059 18.486 17.9059 18.1956C17.9059 17.9181 17.7181 17.696 17.4277 17.696ZM21.9497 18.8105C21.9497 18.8233 21.9625 18.8319 21.9625 18.8575C21.9625 18.8703 21.9497 18.8788 21.9497 18.9044C21.9369 18.9173 21.9369 18.9258 21.9284 18.9386C21.9156 18.9514 21.907 18.96 21.8814 18.96C21.8686 18.9728 21.8601 18.9728 21.8344 18.9728C21.8216 18.9728 21.8131 18.9728 21.7875 18.96C21.7747 18.96 21.7661 18.9472 21.7533 18.9386C21.7405 18.9258 21.732 18.9173 21.732 18.9044C21.7192 18.8831 21.7191 18.8703 21.7191 18.8575C21.7191 18.8361 21.7192 18.8233 21.732 18.8105C21.732 18.7892 21.7448 18.7763 21.7533 18.7635C21.7661 18.7507 21.7747 18.7507 21.7875 18.7422C21.8088 18.7294 21.8216 18.7294 21.8344 18.7294C21.8558 18.7294 21.8686 18.7294 21.8814 18.7422C21.9028 18.755 21.9156 18.755 21.9284 18.7635C21.9412 18.7721 21.9369 18.7892 21.9497 18.8105ZM21.8558 18.8703C21.8771 18.8703 21.8771 18.8575 21.89 18.8575C21.9028 18.8447 21.9028 18.8361 21.9028 18.8233C21.9028 18.8105 21.9028 18.802 21.89 18.7892C21.8771 18.7892 21.8686 18.7763 21.843 18.7763H21.7747V18.9258H21.8088V18.866H21.8216L21.8686 18.9258H21.9028L21.8558 18.8703ZM25.0541 4.13413V19.1649C25.0541 20.2965 24.136 21.2146 23.0045 21.2146H2.50791C1.37633 21.2146 0.458252 20.2965 0.458252 19.1649V4.13413C0.458252 3.00255 1.37633 2.08447 2.50791 2.08447H23.0045C24.136 2.08447 25.0541 3.00255 25.0541 4.13413ZM3.19112 10.0952C3.19112 13.3618 5.84287 16.0093 9.10523 16.0093C10.2667 16.0093 11.4068 15.6592 12.3719 15.0229C9.25896 12.4907 9.28031 7.71248 12.3719 5.18031C11.4068 4.53979 10.2667 4.19391 9.10523 4.19391C5.84287 4.18964 3.19112 6.84138 3.19112 10.0952ZM12.7562 14.7411C15.7666 12.3925 15.7538 7.81497 12.7562 5.45359C9.75856 7.81497 9.74575 12.3968 12.7562 14.7411ZM6.67981 17.9992C6.67981 17.6277 6.43641 17.3843 6.0521 17.3715C5.85568 17.3715 5.64644 17.4313 5.50553 17.649C5.40304 17.474 5.22797 17.3715 4.98457 17.3715C4.82231 17.3715 4.66004 17.4313 4.53194 17.6021V17.4142H4.18179V18.9813H4.53194C4.53194 18.1743 4.42519 17.6917 4.91625 17.6917C5.3518 17.6917 5.2664 18.1273 5.2664 18.9813H5.60374C5.60374 18.1999 5.49699 17.6917 5.98805 17.6917C6.4236 17.6917 6.3382 18.1187 6.3382 18.9813H6.68835V17.9992H6.67981ZM8.59709 17.4142H8.25975V17.6021C8.14446 17.4612 7.98219 17.3715 7.76015 17.3715C7.32033 17.3715 6.98299 17.7216 6.98299 18.1956C6.98299 18.6739 7.32033 19.0197 7.76015 19.0197C7.98219 19.0197 8.14446 18.9386 8.25975 18.7892V18.9856H8.59709V17.4142ZM10.3265 18.5073C10.3265 17.8668 9.34863 18.1572 9.34863 17.8583C9.34863 17.6149 9.85677 17.6533 10.1386 17.8113L10.2795 17.5337C9.87812 17.2733 8.98994 17.2775 8.98994 17.8839C8.98994 18.4945 9.9678 18.2383 9.9678 18.5244C9.9678 18.7934 9.39133 18.7721 9.08388 18.5586L8.93443 18.8276C9.41268 19.1521 10.3265 19.0838 10.3265 18.5073ZM11.8381 18.9044L11.7442 18.6141C11.5819 18.7038 11.2232 18.802 11.2232 18.439V17.7302H11.7826V17.4142H11.2232V16.9359H10.8731V17.4142H10.5485V17.7259H10.8731V18.439C10.8731 19.1905 11.6118 19.0539 11.8381 18.9044ZM12.406 18.3323H13.5803C13.5803 17.6405 13.2643 17.3672 12.8373 17.3672C12.3847 17.3672 12.0602 17.7045 12.0602 18.1913C12.0602 19.0667 13.0252 19.2119 13.5035 18.7977L13.3412 18.5415C13.0081 18.8148 12.5042 18.7892 12.406 18.3323ZM14.9297 17.4142C14.7332 17.3288 14.4343 17.3373 14.2806 17.6021V17.4142H13.9305V18.9813H14.2806V18.0974C14.2806 17.6021 14.6863 17.6661 14.8272 17.7387L14.9297 17.4142ZM15.3823 18.1956C15.3823 17.7088 15.8776 17.5508 16.2662 17.8369L16.4285 17.5594C15.9331 17.1708 15.0322 17.3843 15.0322 18.1999C15.0322 19.0454 15.9887 19.2162 16.4285 18.8404L16.2662 18.5628C15.8734 18.8404 15.3823 18.6739 15.3823 18.1956ZM18.2305 17.4142H17.8803V17.6021C17.5259 17.1324 16.6036 17.3971 16.6036 18.1956C16.6036 19.0155 17.5601 19.2503 17.8803 18.7892V18.9856H18.2305V17.4142ZM19.6695 17.4142C19.567 17.3629 19.1998 17.2903 19.0204 17.6021V17.4142H18.6831V18.9813H19.0204V18.0974C19.0204 17.6277 19.4047 17.6576 19.567 17.7387L19.6695 17.4142ZM21.3904 16.7779H21.053V17.6021C20.7029 17.1366 19.7762 17.3843 19.7762 18.1956C19.7762 19.024 20.737 19.2461 21.053 18.7892V18.9856H21.3904V16.7779ZM21.7149 13.5711V13.7675H21.749V13.5711H21.8302V13.5369H21.6337V13.5711H21.7149ZM21.9967 18.8575C21.9967 18.8361 21.9967 18.8105 21.9839 18.7892C21.9711 18.7763 21.9625 18.755 21.9497 18.7422C21.9369 18.7294 21.9156 18.7208 21.9028 18.708C21.8814 18.708 21.8558 18.6952 21.8344 18.6952C21.8216 18.6952 21.8003 18.708 21.7747 18.708C21.7533 18.7208 21.7405 18.7294 21.7277 18.7422C21.7063 18.755 21.6935 18.7763 21.6935 18.7892C21.6807 18.8105 21.6807 18.8361 21.6807 18.8575C21.6807 18.8703 21.6807 18.8916 21.6935 18.9173C21.6935 18.9301 21.7063 18.9514 21.7277 18.9642C21.7405 18.977 21.749 18.9856 21.7747 18.9984C21.796 19.0112 21.8216 19.0112 21.8344 19.0112C21.8558 19.0112 21.8814 19.0112 21.9028 18.9984C21.9156 18.9856 21.9369 18.977 21.9497 18.9642C21.9625 18.9514 21.9711 18.9301 21.9839 18.9173C21.9967 18.8916 21.9967 18.8703 21.9967 18.8575ZM22.1334 13.5326H22.0736L22.0052 13.6821L21.9369 13.5326H21.8771V13.7632H21.9113V13.5882L21.9796 13.7376H22.0266L22.0864 13.5882V13.7632H22.1334V13.5326ZM22.3212 10.0952C22.3212 6.84138 19.6695 4.18964 16.4071 4.18964C15.2457 4.18964 14.1055 4.53979 13.1405 5.17603C16.2192 7.70821 16.2662 12.4993 13.1405 15.0186C14.1055 15.6592 15.2542 16.005 16.4071 16.005C19.6695 16.0093 22.3212 13.3618 22.3212 10.0952Z" fill="white" fill-opacity="0.9"/>
</g>
<defs>
<clipPath id="clip0_22_670">
<rect width="24.5959" height="21.863" fill="white" transform="translate(0.458252 0.675293)"/>
</clipPath>
</defs>
</svg>
