<svg width="37" height="38" viewBox="0 0 37 38" fill="none" xmlns="http://www.w3.org/2000/svg">
<path d="M18.6472 0.489014C28.7361 0.489014 36.9148 8.66769 36.9148 18.7566C36.9148 28.8455 28.7361 37.0242 18.6472 37.0242C8.55831 37.0242 0.379639 28.8455 0.379639 18.7566C0.379639 8.66769 8.55831 0.489014 18.6472 0.489014ZM18.6472 4.14253C10.5761 4.14253 4.03315 10.6855 4.03315 18.7566C4.03315 26.8277 10.5761 33.3707 18.6472 33.3707C26.7183 33.3707 33.2613 26.8277 33.2613 18.7566C33.2613 10.6855 26.7183 4.14253 18.6472 4.14253ZM16.8205 9.6228C17.7173 9.6228 18.4631 10.269 18.6178 11.1212L18.6472 11.4496V18.7566H24.1275C25.1364 18.7566 25.9542 19.5745 25.9542 20.5833C25.9542 21.4801 25.308 22.226 24.4559 22.3807L24.1275 22.4101H16.8205C15.9237 22.4101 15.1778 21.7639 15.0231 20.9117L14.9937 20.5833V11.4496C14.9937 10.4407 15.8116 9.6228 16.8205 9.6228Z" fill="#5CC892"/>
</svg>
