<svg width="19" height="15" viewBox="0 0 19 15" fill="none" xmlns="http://www.w3.org/2000/svg">
<path d="M15.7734 1.79817C17.7843 4.75475 18.7774 8.0897 18.4061 11.929C18.4046 11.9452 18.3961 11.9602 18.3828 11.9699C16.86 13.0881 15.3846 13.7667 13.9299 14.2168C13.9185 14.2202 13.9064 14.22 13.8952 14.2162C13.884 14.2124 13.8742 14.2052 13.8673 14.1956C13.5312 13.728 13.2259 13.235 12.9583 12.7173C12.943 12.6868 12.957 12.6501 12.9886 12.6381C13.4736 12.4554 13.9348 12.2364 14.3783 11.9771C14.4133 11.9566 14.4155 11.9065 14.3832 11.8825C14.2891 11.8126 14.1958 11.7391 14.1066 11.6657C14.0899 11.6521 14.0674 11.6494 14.0485 11.6586C11.1687 12.9884 8.01401 12.9884 5.10016 11.6586C5.08124 11.6501 5.05876 11.653 5.04252 11.6664C4.95349 11.7398 4.86001 11.8126 4.76676 11.8825C4.73448 11.9065 4.73715 11.9566 4.77232 11.9771C5.2159 12.2315 5.67706 12.4554 6.16136 12.639C6.19274 12.651 6.20766 12.6868 6.19208 12.7173C5.93034 13.2357 5.62498 13.7287 5.28267 14.1963C5.26775 14.2152 5.24327 14.2239 5.22013 14.2168C3.77232 13.7667 2.29692 13.0881 0.774119 11.9699C0.761432 11.9602 0.752307 11.9446 0.750972 11.9283C0.440713 8.6074 1.07303 5.24485 3.38127 1.7975C3.38684 1.78838 3.39529 1.78125 3.40509 1.77702C4.54085 1.25577 5.75763 0.872288 7.02938 0.653282C7.05252 0.649721 7.07567 0.660404 7.08769 0.68088C7.24482 0.95909 7.42443 1.31587 7.54595 1.60743C8.88648 1.40267 10.2479 1.40267 11.6165 1.60743C11.738 1.3221 11.9114 0.95909 12.0679 0.68088C12.0734 0.670722 12.0821 0.662584 12.0925 0.657628C12.103 0.652672 12.1148 0.651151 12.1262 0.653282C13.3986 0.872956 14.6154 1.25644 15.7502 1.77702C15.7602 1.78125 15.7685 1.78838 15.7734 1.79817ZM8.22746 8.11241C8.24148 7.13066 7.5257 6.31829 6.6272 6.31829C5.73604 6.31829 5.02716 7.12354 5.02716 8.11241C5.02716 9.10105 5.75006 9.9063 6.6272 9.9063C7.51858 9.9063 8.22746 9.10105 8.22746 8.11241ZM14.1437 8.11241C14.1578 7.13066 13.442 6.31829 12.5437 6.31829C11.6523 6.31829 10.9434 7.12354 10.9434 8.11241C10.9434 9.10105 11.6663 9.9063 12.5437 9.9063C13.442 9.9063 14.1437 9.10105 14.1437 8.11241Z" fill="white" fill-opacity="0.95"/>
</svg>
