<svg width="29" height="23" viewBox="0 0 29 23" fill="none" xmlns="http://www.w3.org/2000/svg">
<g clip-path="url(#clip0_22_674)">
<path d="M5.46756 9.85531V11.6175H7.90689C7.85769 11.8984 7.75236 12.1666 7.59719 12.4059C7.44202 12.6451 7.24019 12.8507 7.00378 13.0102C6.59623 13.29 6.07589 13.4494 5.46585 13.4494C4.28677 13.4494 3.2901 12.6415 2.93253 11.5603C2.74543 10.9914 2.74543 10.3776 2.93253 9.80874C3.2901 8.72109 4.28677 7.91324 5.46585 7.91324C5.78545 7.90729 6.10304 7.96496 6.40015 8.08289C6.69725 8.20082 6.96794 8.37667 7.19645 8.60019L8.49002 7.29209C7.67531 6.51803 6.5913 6.09147 5.46756 6.10276C4.62691 6.10598 3.80391 6.34414 3.09146 6.79035C2.37901 7.23656 1.80548 7.87304 1.43561 8.62796C1.11702 9.26594 0.951172 9.96927 0.951172 10.6824C0.951172 11.3955 1.11702 12.0988 1.43561 12.7368V12.7432C1.80558 13.4977 2.37926 14.1336 3.09179 14.579C3.80432 15.0244 4.62726 15.2616 5.46756 15.2637C6.6838 15.2637 7.71251 14.8566 8.45798 14.1568C9.31239 13.3618 9.79982 12.1853 9.79982 10.7858C9.80032 10.4741 9.77532 10.1629 9.72506 9.85531H5.46756ZM22.1033 9.68443C21.6705 9.28371 21.081 9.08036 20.3351 9.08036C19.3756 9.08036 18.6545 9.43665 18.1777 10.1424L19.0684 10.7089C19.3945 10.2247 19.8397 9.98262 20.4039 9.98262C20.7631 9.98349 21.1093 10.1172 21.3757 10.3581C21.5056 10.4709 21.6098 10.6102 21.6812 10.7667C21.7526 10.9231 21.7896 11.0931 21.7897 11.2651V11.5005C21.401 11.2839 20.9118 11.1694 20.3099 11.1694C19.6076 11.1694 19.0432 11.3351 18.6229 11.6722C18.2025 12.0093 17.9897 12.4544 17.9897 13.0205C17.9832 13.2734 18.0332 13.5247 18.1363 13.7558C18.2393 13.9869 18.3927 14.1921 18.5853 14.3563C18.9804 14.7126 19.4824 14.8908 20.0715 14.8908C20.7674 14.8908 21.3194 14.5789 21.7376 13.9556H21.7803V14.7126H22.7462V11.3505C22.7492 10.6435 22.536 10.0834 22.1033 9.68443ZM21.2818 13.4994C21.1336 13.6501 20.957 13.7699 20.7621 13.8517C20.5672 13.9336 20.358 13.9758 20.1467 13.9761C19.8626 13.9808 19.5857 13.8864 19.3636 13.7091C19.26 13.6315 19.176 13.5306 19.1184 13.4147C19.0607 13.2987 19.031 13.1709 19.0317 13.0414C19.0317 12.7423 19.1692 12.4941 19.4392 12.2972C19.7092 12.1003 20.06 11.9982 20.4675 11.9982C21.0297 11.9913 21.4697 12.1195 21.7833 12.3732C21.7833 12.806 21.6141 13.1811 21.2818 13.4994ZM17.281 7.43307C17.0543 7.20643 16.7842 7.02793 16.4868 6.90827C16.1894 6.78862 15.8709 6.73027 15.5504 6.73673H12.8731V14.7143H13.8826V11.483H15.5487C16.2322 11.483 16.8089 11.254 17.2793 10.8024C17.3169 10.7644 17.3545 10.726 17.3925 10.6879C17.8042 10.2387 18.0231 9.64583 18.0022 9.03686C17.9814 8.42788 17.7224 7.8514 17.281 7.43136V7.43307ZM16.5727 10.0916C16.4454 10.2274 16.2907 10.3345 16.1188 10.4058C15.9468 10.4772 15.7617 10.511 15.5756 10.5051H13.8826V7.71929H15.5756C15.9369 7.71799 16.284 7.85975 16.5411 8.1136C16.8026 8.37405 16.9523 8.72625 16.9582 9.0953C16.9641 9.46436 16.8258 9.82116 16.5727 10.0898V10.0916ZM27.1947 9.25723L25.6337 13.1747H25.6145L24.0159 9.25723H22.9184L25.1309 14.3644L23.877 17.1122H24.9173L28.2922 9.25723H27.1947Z" fill="white" fill-opacity="0.9"/>
</g>
<defs>
<clipPath id="clip0_22_674">
<rect width="27.341" height="21.8728" fill="white" transform="translate(0.951172 0.67041)"/>
</clipPath>
</defs>
</svg>
