<svg width="18" height="20" viewBox="0 0 18 20" fill="none" xmlns="http://www.w3.org/2000/svg">
<g clip-path="url(#clip0_22_609)">
<path d="M8.82976 6.15236C6.46115 6.15236 4.55061 8.06289 4.55061 10.4315C4.55061 12.8001 6.46115 14.7106 8.82976 14.7106C11.1984 14.7106 13.1089 12.8001 13.1089 10.4315C13.1089 8.06289 11.1984 6.15236 8.82976 6.15236ZM8.82976 13.2135C7.2991 13.2135 6.04776 11.9659 6.04776 10.4315C6.04776 8.89712 7.29538 7.6495 8.82976 7.6495C10.3641 7.6495 11.6118 8.89712 11.6118 10.4315C11.6118 11.9659 10.3604 13.2135 8.82976 13.2135ZM14.282 5.97732C14.282 6.53223 13.8351 6.97542 13.2839 6.97542C12.729 6.97542 12.2858 6.52851 12.2858 5.97732C12.2858 5.42613 12.7328 4.97922 13.2839 4.97922C13.8351 4.97922 14.282 5.42613 14.282 5.97732ZM17.1162 6.99031C17.0529 5.65331 16.7475 4.469 15.768 3.49326C14.7923 2.51751 13.608 2.21212 12.271 2.14508C10.893 2.06687 6.76281 2.06687 5.38484 2.14508C4.05157 2.20839 2.86726 2.51378 1.88779 3.48953C0.908313 4.46528 0.60665 5.64959 0.539614 6.98659C0.461405 8.36455 0.461405 12.4947 0.539614 13.8727C0.602926 15.2097 0.908313 16.394 1.88779 17.3698C2.86726 18.3455 4.04784 18.6509 5.38484 18.7179C6.76281 18.7961 10.893 18.7961 12.271 18.7179C13.608 18.6546 14.7923 18.3492 15.768 17.3698C16.7438 16.394 17.0491 15.2097 17.1162 13.8727C17.1944 12.4947 17.1944 8.36828 17.1162 6.99031ZM15.336 15.3512C15.0455 16.0812 14.4831 16.6435 13.7495 16.9377C12.6508 17.3735 10.0439 17.2729 8.82976 17.2729C7.61566 17.2729 5.00497 17.3698 3.91005 16.9377C3.1801 16.6473 2.61774 16.0849 2.32352 15.3512C1.88779 14.2526 1.98834 11.6456 1.98834 10.4315C1.98834 9.2174 1.89151 6.60672 2.32352 5.51179C2.61401 4.78184 3.17637 4.21948 3.91005 3.92527C5.0087 3.48953 7.61566 3.59009 8.82976 3.59009C10.0439 3.59009 12.6545 3.49326 13.7495 3.92527C14.4794 4.21576 15.0418 4.77812 15.336 5.51179C15.7717 6.61044 15.6712 9.2174 15.6712 10.4315C15.6712 11.6456 15.7717 14.2563 15.336 15.3512Z" fill="white" fill-opacity="0.95"/>
</g>
<defs>
<clipPath id="clip0_22_609">
<rect width="16.6846" height="19.0681" fill="white" transform="translate(0.48291 0.901855)"/>
</clipPath>
</defs>
</svg>
