<svg width="19" height="19" viewBox="0 0 19 19" fill="none" xmlns="http://www.w3.org/2000/svg">
<g clip-path="url(#clip0_22_606)">
<path d="M9.59385 0.352539C4.57715 0.352539 0.510376 4.41932 0.510376 9.43602C0.510376 14.4527 4.57715 18.5195 9.59385 18.5195C14.6106 18.5195 18.6774 14.4527 18.6774 9.43602C18.6773 4.41932 14.6105 0.352539 9.59385 0.352539ZM7.17036 13.8275H5.17599V7.38422H7.17036V13.8275ZM6.16368 6.54043C5.51234 6.54043 4.98431 6.0081 4.98431 5.35154C4.98431 4.69491 5.51241 4.16262 6.16368 4.16262C6.81494 4.16262 7.34297 4.69491 7.34297 5.35154C7.343 6.00814 6.81498 6.54043 6.16368 6.54043ZM14.6443 13.8275H12.6596V10.4453C12.6596 9.51767 12.3072 8.99986 11.5737 8.99986C10.7754 8.99986 10.3584 9.53916 10.3584 10.4453V13.8275H8.44554V7.38422H10.3584V8.25202C10.3584 8.25202 10.9337 7.18768 12.3 7.18768C13.6663 7.18768 14.6443 8.02192 14.6443 9.74769L14.6443 13.8275Z" fill="white" fill-opacity="0.95"/>
</g>
<defs>
<clipPath id="clip0_22_606">
<rect width="18.167" height="18.167" fill="white" transform="translate(0.510376 0.352539)"/>
</clipPath>
</defs>
</svg>
