<svg width="30" height="38" viewBox="0 0 30 38" fill="none" xmlns="http://www.w3.org/2000/svg">
<path d="M29.2676 15.1992C29.2676 12.3546 27.0775 10.0162 24.3368 10.0162H5.30904C2.56841 10.0162 0.378271 12.3546 0.378271 15.1992V32.3004C0.378271 35.1449 2.56841 37.4833 5.30904 37.4833H24.3368C27.0775 37.4833 29.2676 35.1449 29.2676 32.3004V15.1992ZM5.30904 12.9468H24.3368C25.4883 12.9468 26.4534 13.9373 26.4534 15.1992V32.3004C26.4534 33.5622 25.4883 34.5527 24.3368 34.5527H5.30904C4.15753 34.5527 3.19247 33.5622 3.19247 32.3004V15.1992C3.19247 13.9373 4.15753 12.9468 5.30904 12.9468Z" fill="#5CC892" stroke="#5CC892" stroke-width="0.7"/>
<path d="M7.04712 6.98647V10.2899H10.935V6.98647C10.935 5.16206 12.6757 3.68305 14.8229 3.68305C16.9702 3.68305 18.7108 5.16206 18.7108 6.98647V10.2899H22.5988V6.98647C22.5988 3.33762 19.1174 0.379639 14.8229 0.379639C10.5285 0.379639 7.04712 3.33762 7.04712 6.98647Z" fill="#5CC892"/>
</svg>
