<svg width="37" height="37" viewBox="0 0 37 37" fill="none" xmlns="http://www.w3.org/2000/svg">
<path d="M11.1676 17.1564V17.156L11.1587 17.1568L10.8898 17.1809L10.8898 17.1805L10.8809 17.1822C10.1363 17.3173 9.57171 17.9688 9.57171 18.7523C9.57171 19.6337 10.2862 20.3483 11.1676 20.3483H26.1312V20.3487L26.1401 20.3479L26.409 20.3238L26.4091 20.3242L26.418 20.3225C27.1625 20.1874 27.7271 19.5359 27.7271 18.7523C27.7271 17.871 27.0126 17.1564 26.1312 17.1564H11.1676ZM36.698 18.7523C36.698 8.78315 28.6163 0.701514 18.6471 0.701514C8.67792 0.701514 0.596289 8.78315 0.596289 18.7523C0.596289 28.7216 8.67792 36.8032 18.6471 36.8032C28.6163 36.8032 36.698 28.7216 36.698 18.7523ZM3.78809 18.7523C3.78809 10.5459 10.4407 3.89332 18.6471 3.89332C26.8535 3.89332 33.5062 10.5459 33.5062 18.7523C33.5062 26.9588 26.8535 33.6114 18.6471 33.6114C10.4407 33.6114 3.78809 26.9588 3.78809 18.7523Z" fill="#5CC892" stroke="#5CC892" stroke-width="0.2"/>
</svg>
