<svg width="18" height="23" viewBox="0 0 18 23" fill="none" xmlns="http://www.w3.org/2000/svg">
<g clip-path="url(#clip0_22_665)">
<path d="M5.44935 13.3501C5.29643 14.189 4.68913 18.0993 4.51 19.2046C4.49689 19.2833 4.46631 19.3139 4.37893 19.3139H1.11961C0.787556 19.3139 0.547257 19.0255 0.590948 18.7066L3.15122 2.45801C3.21676 2.03858 3.5925 1.71963 4.02504 1.71963C10.6791 1.71963 11.2384 1.55798 12.9379 2.21771C15.5637 3.2357 15.804 5.69112 14.8603 8.34751C13.921 11.0825 11.6927 12.2578 8.73926 12.2928C6.84308 12.3234 5.70276 11.9869 5.44935 13.3501ZM16.1842 7.063C16.1055 7.00621 16.0749 6.98436 16.0531 7.1198C15.9657 7.61788 15.8303 8.10284 15.6686 8.58781C13.9253 13.5598 9.09315 13.1273 6.73386 13.1273C6.46734 13.1273 6.29258 13.2715 6.25763 13.538C5.27022 19.6721 5.07361 20.9523 5.07361 20.9523C5.02992 21.2625 5.22653 21.5159 5.53673 21.5159H8.31109C8.68683 21.5159 8.99704 21.2406 9.07131 20.8649C9.10189 20.629 9.02325 21.1314 9.70045 16.8759C9.90143 15.9147 10.3252 16.0152 10.9806 16.0152C14.0826 16.0152 16.5031 14.7569 17.224 11.1088C17.508 9.58833 17.425 7.98925 16.1842 7.063Z" fill="white" fill-opacity="0.9"/>
</g>
<defs>
<clipPath id="clip0_22_665">
<rect width="16.7772" height="22.3696" fill="white" transform="translate(0.582153 0.421875)"/>
</clipPath>
</defs>
</svg>
