<svg width="26" height="13" viewBox="0 0 26 13" fill="none" xmlns="http://www.w3.org/2000/svg">
<g clip-path="url(#clip0_22_672)">
<path d="M22.6803 6.28514C22.733 5.44108 22.9632 5.04783 23.3949 5.04783C23.8217 5.04783 24.0423 5.45067 24.0711 6.28514H22.6803ZM25.8407 6.78869C25.8407 5.84872 25.6345 5.10058 25.2316 4.57784C24.8192 4.04551 24.2053 3.77215 23.4236 3.77215C21.8218 3.77215 20.8243 4.95671 20.8243 6.85583C20.8243 7.9205 21.0881 8.71659 21.6156 9.22494C22.0856 9.68054 22.7618 9.91074 23.6346 9.91074C24.4403 9.91074 25.1837 9.71891 25.6537 9.40718L25.4474 8.11712C24.9823 8.3665 24.4451 8.50558 23.8361 8.50558C23.4716 8.50558 23.2222 8.42885 23.04 8.27059C22.8433 8.10273 22.7282 7.82938 22.6899 7.44092H25.8119C25.8263 7.3498 25.8407 6.92298 25.8407 6.78869ZM18.3018 8.06437C18.1483 8.35211 17.9133 8.50558 17.6399 8.50558C17.4481 8.50558 17.285 8.46721 17.1316 8.39048V5.58016C17.4529 5.24446 17.7406 5.20609 17.8462 5.20609C18.3257 5.20609 18.5607 5.72403 18.5607 6.73114C18.5607 7.31143 18.4792 7.76223 18.3018 8.06437ZM19.87 4.41958C19.5343 3.98796 19.0739 3.77215 18.4792 3.77215C17.9325 3.77215 17.4529 4.00235 17.0069 4.47713L16.9062 3.88246H15.2516V11.9825L17.1364 11.6708V9.77166C17.4241 9.86278 17.7215 9.91074 17.9852 9.91074C18.4552 9.91074 19.141 9.79085 19.6733 9.21056C20.1817 8.65425 20.4407 7.7958 20.4407 6.664C20.4359 5.66169 20.2488 4.90396 19.87 4.41958ZM12.614 3.88725H14.5035V9.80044H12.614V3.88725ZM13.5635 3.30217C14.1103 3.30217 14.5515 2.85616 14.5515 2.30465C14.5515 1.74834 14.1103 1.30713 13.5635 1.30713C13.0072 1.30713 12.566 1.74834 12.566 2.30465C12.5708 2.85137 13.012 3.30217 13.5635 3.30217ZM11.8035 3.80572C11.2712 3.80572 10.8443 4.08388 10.6813 4.58744L10.5662 3.88725H8.91643V9.80044H10.8012V5.96382C11.0362 5.67607 11.3719 5.57057 11.8275 5.57057C11.9282 5.57057 12.0337 5.57057 12.1632 5.59455V3.84889C12.0289 3.82011 11.9138 3.80572 11.8035 3.80572ZM8.18747 5.28282L8.41767 3.88246H7.21393V2.18955L5.59776 2.45811L5.36277 3.88725L4.79207 3.97837L4.58106 5.28282H5.36277V8.026C5.36277 8.74057 5.54501 9.23454 5.91908 9.53667C6.2308 9.78605 6.67681 9.91074 7.30985 9.91074C7.79422 9.91074 8.09156 9.82921 8.29778 9.77166V8.28977C8.18268 8.31854 7.92371 8.3713 7.75106 8.3713C7.37699 8.3713 7.21873 8.17947 7.21873 7.74785V5.28282H8.18747ZM2.79223 6.11249C2.23592 5.90627 1.93379 5.74801 1.93379 5.49863C1.93379 5.28762 2.10644 5.16293 2.41816 5.16293C2.98886 5.16293 3.57394 5.38353 3.97679 5.58016L4.20699 4.175C3.88567 4.02153 3.23344 3.77215 2.33184 3.77215C1.694 3.77215 1.16167 3.94001 0.782806 4.25173C0.384757 4.57784 0.178539 5.04783 0.178539 5.61853C0.178539 6.64962 0.806785 7.09083 1.83308 7.4649C2.4949 7.69989 2.7155 7.86774 2.7155 8.12671C2.7155 8.37609 2.50449 8.51997 2.11603 8.51997C1.63645 8.51997 0.845151 8.28497 0.332004 7.98284L0.101807 9.40239C0.543017 9.65177 1.36309 9.91074 2.21195 9.91074C2.88815 9.91074 3.44925 9.75248 3.82812 9.44555C4.25494 9.10985 4.47555 8.61588 4.47555 7.97804C4.47555 6.92298 3.83292 6.48176 2.79223 6.11249Z" fill="white" fill-opacity="0.9"/>
</g>
<defs>
<clipPath id="clip0_22_672">
<rect width="25.8972" height="11.9894" fill="white" transform="translate(0.0539551 0.611816)"/>
</clipPath>
</defs>
</svg>
