<svg width="16" height="13" viewBox="0 0 16 13" fill="none" xmlns="http://www.w3.org/2000/svg">
<path d="M15.3462 1.72758C14.7878 1.97611 14.1864 2.1418 13.5574 2.21851C14.2017 1.83191 14.6926 1.22132 14.9258 0.49721C14.3245 0.85006 13.6586 1.11086 12.9499 1.24893C12.3822 0.644486 11.5722 0.26709 10.6763 0.26709C8.95499 0.26709 7.562 1.66008 7.562 3.38138C7.562 3.62684 7.58962 3.8631 7.64178 4.09015C5.05523 3.96128 2.76016 2.7217 1.22296 0.837787C0.956025 1.29803 0.802611 1.83191 0.802611 2.4026C0.802611 3.48263 1.35183 4.43686 2.1864 4.99529C1.67707 4.97995 1.19535 4.83881 0.774997 4.60562C0.774997 4.61789 0.774997 4.63016 0.774997 4.6455C0.774997 6.15509 1.84889 7.41308 3.27257 7.69843C3.01176 7.769 2.73562 7.80889 2.45334 7.80889C2.2539 7.80889 2.05753 7.79048 1.8673 7.75366C2.26311 8.99017 3.41371 9.89224 4.77602 9.91679C3.71133 10.7514 2.36743 11.2484 0.910001 11.2484C0.658403 11.2484 0.409873 11.2331 0.16748 11.2055C1.54513 12.0891 3.18359 12.6046 4.9417 12.6046C10.6702 12.6046 13.8029 7.86105 13.8029 3.74343C13.8029 3.60843 13.7998 3.47343 13.7936 3.34149C14.4012 2.89966 14.9289 2.35044 15.3462 1.72758Z" fill="white" fill-opacity="0.95"/>
</svg>
