<svg width="24" height="16" viewBox="0 0 24 16" fill="none" xmlns="http://www.w3.org/2000/svg">
<g clip-path="url(#clip0_22_667)">
<path d="M22.1563 0.203125H1.5871C0.909333 0.203125 0.359375 0.76561 0.359375 1.45952V13.7389C0.359375 14.4329 0.909067 14.9953 1.5871 14.9953H22.1563C22.8341 14.9953 23.384 14.4328 23.384 13.7389V1.45952C23.384 0.765491 22.8343 0.203125 22.1563 0.203125V0.203125ZM4.93228 10.6758L3.47596 5.33579C2.97241 5.05017 2.39781 4.8206 1.75528 4.66148L1.77619 4.53358H4.41762C4.77343 4.54712 5.06104 4.66329 5.16019 5.05262L5.73446 7.87757L5.73458 7.8779L5.90545 8.72989L7.50918 4.53746H9.24438L6.66546 10.6734L4.93228 10.6755V10.6758ZM10.5204 10.681H8.88303L8.883 10.681L9.90719 4.53284H11.5453L10.5204 10.681V10.681ZM13.371 10.7722C12.6364 10.7645 11.9289 10.6158 11.5463 10.4442L11.7762 9.06793L11.9872 9.16563C12.5252 9.39516 12.8735 9.48833 13.5291 9.48833C14 9.48833 14.5051 9.30007 14.5092 8.888C14.5122 8.61887 14.2979 8.4267 13.6603 8.12535C13.0389 7.83123 12.2158 7.33845 12.2249 6.45504C12.2346 5.25998 13.3748 4.42608 14.9934 4.42608C15.6285 4.42608 16.137 4.55976 16.4616 4.68432L16.2395 6.01688L16.0927 5.94589C15.7904 5.82137 15.4023 5.70188 14.8667 5.71035C14.2254 5.71035 13.9286 5.98365 13.9286 6.23919C13.9249 6.52715 14.2755 6.71698 14.8481 7.00133C15.7932 7.44015 16.2296 7.9724 16.2234 8.67176C16.2107 9.94793 15.0929 10.7722 13.371 10.7722ZM20.468 10.6829C20.468 10.6829 20.3177 9.97693 20.2687 9.76172C20.0298 9.76172 18.3588 9.75906 18.1708 9.75906C18.1072 9.92534 17.8259 10.6829 17.8259 10.6829H16.1057L18.5386 5.04863C18.7108 4.64828 19.0042 4.53879 19.3964 4.53879H20.6621L21.988 10.6831H20.468V10.6829Z" fill="white" fill-opacity="0.9"/>
<path d="M18.6424 8.50169C18.7778 8.14742 19.295 6.78303 19.295 6.78303C19.2853 6.79943 19.4294 6.4271 19.5121 6.19629L19.6229 6.72632C19.6229 6.72632 19.9365 8.19389 20.0021 8.50163H18.6423L18.6424 8.50169Z" fill="white" fill-opacity="0.9"/>
</g>
<defs>
<clipPath id="clip0_22_667">
<rect width="23.0988" height="14.8069" fill="white" transform="translate(0.359375 0.203125)"/>
</clipPath>
</defs>
</svg>
